<?xml version="1.0" encoding="UTF-8"?>
<!DOCTYPE svg PUBLIC "-//W3C//DTD SVG 1.1//EN" "http://www.w3.org/Graphics/SVG/1.1/DTD/svg11.dtd">
<svg xmlns="http://www.w3.org/2000/svg" xmlns:xlink="http://www.w3.org/1999/xlink" version="1.1" width="2007px" height="2034px" viewBox="-0.5 -0.5 2007 2034"><defs/><g><rect x="9" y="9" width="1980" height="1500" rx="180" ry="180" fill="#cce5ff" stroke="#36393d" stroke-width="3" pointer-events="all"/><ellipse cx="1509" cy="249" rx="210" ry="210" fill="#e3c800" stroke="#b09500" stroke-width="3" pointer-events="all"/><path d="M 894 319 C 738 319 699 449 823.8 474.99 C 699 532.19 839.4 656.99 940.8 604.99 C 1011 708.99 1245 708.99 1323 604.99 C 1479 604.99 1479 500.99 1381.5 449 C 1479 345 1323 241 1186.5 293 C 1089 215 933 215 894 319 Z" fill="#bac8d3" stroke="#52585d" stroke-width="9" stroke-miterlimit="10" pointer-events="all"/><path d="M 1269 409 C 1077 409 1029 569 1182.6 600.99 C 1029 671.39 1201.8 824.99 1326.6 760.99 C 1413 888.99 1701 888.99 1797 760.99 C 1989 760.99 1989 632.99 1869 569 C 1989 441 1797 313 1629 377 C 1509 281 1317 281 1269 409 Z" fill="#bac8d3" stroke="#52585d" stroke-width="9" stroke-miterlimit="10" pointer-events="all"/><path d="M 9 1359 Q 504 1521 999 1359 Q 1494 1197 1989 1359 L 1989 1929 Q 1494 1767 999 1929 Q 504 2091 9 1929 L 9 1359 Z" fill="#60a917" stroke="#2d7600" stroke-width="3" stroke-miterlimit="10" pointer-events="all"/><rect x="789" y="999" width="780" height="780" fill="#fad7ac" stroke="#b46504" stroke-width="9" pointer-events="all"/><path d="M 939 369 L 1419 759 L 939 1149 Z" fill="#fad9d5" stroke="#ae4132" stroke-width="9" stroke-miterlimit="10" transform="rotate(-90,1179,759)" pointer-events="all"/><rect x="1089" y="1419" width="240" height="360" fill="#a0522d" stroke="#6d1f00" stroke-width="9" pointer-events="all"/><rect x="879" y="1089" width="150" height="150" fill="#ffcccc" stroke="#36393d" stroke-width="9" pointer-events="all"/><rect x="1329" y="1089" width="150" height="150" fill="#ffcccc" stroke="#36393d" stroke-width="9" pointer-events="all"/><ellipse cx="1284" cy="1614" rx="15" ry="15" fill="#c76638" stroke="#6d1f00" stroke-width="9" pointer-events="all"/><ellipse cx="507.75" cy="1068.38" rx="99.375" ry="99.375" fill="#ffcc99" stroke="#36393d" stroke-width="15" pointer-events="all"/><path d="M 507.75 1167.75 L 507.75 1499 M 507.75 1234 L 309 1234 M 507.75 1234 L 706.5 1234 M 507.75 1499 L 309 1764 M 507.75 1499 L 706.5 1764" fill="none" stroke="#36393d" stroke-width="15" stroke-miterlimit="10" pointer-events="all"/><path d="M 417.72 909 C 441.34 886.43 576.4 757.5 660.84 676.96 C 736.5 604.8 734.84 499.58 666.12 434.32 C 597.33 369 486.14 369.28 417.72 434.89 C 349.3 369.28 238.11 369 169.38 434.26 C 100.6 499.53 99 604.74 174.6 676.96 C 259.03 757.5 394.09 886.43 417.72 909 Z" fill="#e51400" stroke="#b20000" stroke-width="3" stroke-miterlimit="10" pointer-events="all"/></g></svg>